<svg width="401" height="335" viewBox="0 0 401 335" fill="none" xmlns="http://www.w3.org/2000/svg">
<g filter="url(#filter0_d_174_201)">
<rect x="156" y="223" width="104" height="104" rx="52" fill="#262E8E"/>
</g>
<path d="M181.79 293.975V288.401C181.79 287.018 182.146 285.763 182.858 284.636C183.569 283.509 184.557 282.669 185.822 282.116C188.708 280.851 191.308 279.942 193.62 279.388C195.933 278.835 198.315 278.558 200.766 278.558C203.217 278.558 205.589 278.835 207.881 279.388C210.174 279.942 212.764 280.851 215.649 282.116C216.914 282.669 217.913 283.509 218.644 284.636C219.375 285.763 219.741 287.018 219.741 288.401V293.975H181.79ZM223.299 293.975V288.401C223.299 285.911 222.666 283.865 221.401 282.264C220.136 280.663 218.476 279.368 216.42 278.38C219.148 278.696 221.718 279.161 224.129 279.774C226.541 280.386 228.497 281.088 230 281.879C231.304 282.63 232.332 283.559 233.083 284.666C233.834 285.773 234.21 287.018 234.21 288.401V293.975H223.299ZM200.766 274.941C198.156 274.941 196.022 274.111 194.361 272.45C192.701 270.79 191.871 268.655 191.871 266.046C191.871 263.437 192.701 261.302 194.361 259.642C196.022 257.981 198.156 257.151 200.766 257.151C203.375 257.151 205.509 257.981 207.17 259.642C208.83 261.302 209.66 263.437 209.66 266.046C209.66 268.655 208.83 270.79 207.17 272.45C205.509 274.111 203.375 274.941 200.766 274.941ZM222.113 266.046C222.113 268.655 221.283 270.79 219.622 272.45C217.962 274.111 215.827 274.941 213.218 274.941C212.783 274.941 212.299 274.911 211.765 274.852C211.232 274.792 210.747 274.684 210.313 274.526C211.261 273.537 211.983 272.322 212.477 270.879C212.971 269.436 213.218 267.825 213.218 266.046C213.218 264.267 212.971 262.696 212.477 261.332C211.983 259.968 211.261 258.713 210.313 257.566C210.747 257.448 211.232 257.349 211.765 257.27C212.299 257.191 212.783 257.151 213.218 257.151C215.827 257.151 217.962 257.981 219.622 259.642C221.283 261.302 222.113 263.437 222.113 266.046ZM185.348 290.418H216.183V288.401C216.183 287.769 215.995 287.156 215.62 286.563C215.244 285.97 214.78 285.555 214.226 285.318C211.38 284.053 208.988 283.203 207.051 282.768C205.114 282.333 203.019 282.116 200.766 282.116C198.512 282.116 196.407 282.333 194.45 282.768C192.493 283.203 190.092 284.053 187.246 285.318C186.692 285.555 186.238 285.97 185.882 286.563C185.526 287.156 185.348 287.769 185.348 288.401V290.418ZM200.766 271.383C202.307 271.383 203.582 270.879 204.59 269.871C205.598 268.863 206.102 267.588 206.102 266.046C206.102 264.504 205.598 263.229 204.59 262.221C203.582 261.213 202.307 260.709 200.766 260.709C199.224 260.709 197.949 261.213 196.941 262.221C195.933 263.229 195.429 264.504 195.429 266.046C195.429 267.588 195.933 268.863 196.941 269.871C197.949 270.879 199.224 271.383 200.766 271.383Z" fill="white"/>
<g filter="url(#filter1_d_174_201)">
<rect x="4" width="203" height="203" rx="101.5" fill="#262E8E"/>
</g>
<path d="M67.3734 141.869C65.5792 141.869 64.0093 141.196 62.6637 139.851C61.318 138.505 60.6452 136.935 60.6452 135.141V80.306C60.6452 78.5119 61.318 76.9419 62.6637 75.5963C64.0093 74.2507 65.5792 73.5778 67.3734 73.5778H88.6795V63.3734C88.6795 61.5792 89.3523 60.0093 90.6979 58.6636C92.0436 57.318 93.6135 56.6451 95.4077 56.6451H115.592C117.387 56.6451 118.956 57.318 120.302 58.6636C121.648 60.0093 122.321 61.5792 122.321 63.3734V73.5778H143.627C145.421 73.5778 146.991 74.2507 148.336 75.5963C149.682 76.9419 150.355 78.5119 150.355 80.306V135.141C150.355 136.935 149.682 138.505 148.336 139.851C146.991 141.196 145.421 141.869 143.627 141.869H67.3734ZM95.4077 73.5778H115.592V63.3734H95.4077V73.5778ZM143.627 113.723H115.704V120.451H95.5198V113.723H67.3734V135.141H143.627V113.723ZM102.248 113.723H108.976V106.995H102.248V113.723ZM67.3734 106.995H95.5198V100.266H115.704V106.995H143.627V80.306H67.3734V106.995Z" fill="white"/>
<g filter="url(#filter2_d_174_201)">
<rect x="239" y="63" width="158" height="160" rx="79" fill="#262E8E"/>
</g>
<path d="M285.59 168.316V162.241H314.354L277.892 125.785L282.146 121.532L317.899 157.278L341.599 133.684C341.194 132.941 340.873 132.148 340.637 131.304C340.4 130.46 340.282 129.633 340.282 128.823C340.282 126.257 341.16 124.097 342.915 122.342C344.671 120.586 346.832 119.709 349.397 119.709C351.963 119.709 354.124 120.586 355.879 122.342C357.635 124.097 358.513 126.257 358.513 128.823C358.513 131.388 357.635 133.549 355.879 135.304C354.124 137.059 351.963 137.937 349.397 137.937C348.857 137.937 348.368 137.903 347.929 137.835C347.49 137.768 347 137.633 346.46 137.43L321.646 162.241H350.41V168.316H285.59Z" fill="white"/>
<defs>
<filter id="filter0_d_174_201" x="152" y="223" width="112" height="112" filterUnits="userSpaceOnUse" color-interpolation-filters="sRGB">
<feFlood flood-opacity="0" result="BackgroundImageFix"/>
<feColorMatrix in="SourceAlpha" type="matrix" values="0 0 0 0 0 0 0 0 0 0 0 0 0 0 0 0 0 0 127 0" result="hardAlpha"/>
<feOffset dy="4"/>
<feGaussianBlur stdDeviation="2"/>
<feComposite in2="hardAlpha" operator="out"/>
<feColorMatrix type="matrix" values="0 0 0 0 0 0 0 0 0 0 0 0 0 0 0 0 0 0 0.25 0"/>
<feBlend mode="normal" in2="BackgroundImageFix" result="effect1_dropShadow_174_201"/>
<feBlend mode="normal" in="SourceGraphic" in2="effect1_dropShadow_174_201" result="shape"/>
</filter>
<filter id="filter1_d_174_201" x="0" y="0" width="211" height="211" filterUnits="userSpaceOnUse" color-interpolation-filters="sRGB">
<feFlood flood-opacity="0" result="BackgroundImageFix"/>
<feColorMatrix in="SourceAlpha" type="matrix" values="0 0 0 0 0 0 0 0 0 0 0 0 0 0 0 0 0 0 127 0" result="hardAlpha"/>
<feOffset dy="4"/>
<feGaussianBlur stdDeviation="2"/>
<feComposite in2="hardAlpha" operator="out"/>
<feColorMatrix type="matrix" values="0 0 0 0 0 0 0 0 0 0 0 0 0 0 0 0 0 0 0.25 0"/>
<feBlend mode="normal" in2="BackgroundImageFix" result="effect1_dropShadow_174_201"/>
<feBlend mode="normal" in="SourceGraphic" in2="effect1_dropShadow_174_201" result="shape"/>
</filter>
<filter id="filter2_d_174_201" x="235" y="63" width="166" height="168" filterUnits="userSpaceOnUse" color-interpolation-filters="sRGB">
<feFlood flood-opacity="0" result="BackgroundImageFix"/>
<feColorMatrix in="SourceAlpha" type="matrix" values="0 0 0 0 0 0 0 0 0 0 0 0 0 0 0 0 0 0 127 0" result="hardAlpha"/>
<feOffset dy="4"/>
<feGaussianBlur stdDeviation="2"/>
<feComposite in2="hardAlpha" operator="out"/>
<feColorMatrix type="matrix" values="0 0 0 0 0 0 0 0 0 0 0 0 0 0 0 0 0 0 0.25 0"/>
<feBlend mode="normal" in2="BackgroundImageFix" result="effect1_dropShadow_174_201"/>
<feBlend mode="normal" in="SourceGraphic" in2="effect1_dropShadow_174_201" result="shape"/>
</filter>
</defs>
</svg>
